<svg id="Layer_1" data-name="Layer 1" xmlns="http://www.w3.org/2000/svg" xmlns:xlink="http://www.w3.org/1999/xlink" viewBox="0 0 1000 1000"><defs><style>.cls-1{fill:url(#linear-gradient);}.cls-2{fill:url(#linear-gradient-2);}</style><linearGradient id="linear-gradient" x1="1784.46" y1="-436.01" x2="2326.68" y2="-436.01" gradientTransform="translate(-1784.46 1136.13)" gradientUnits="userSpaceOnUse"><stop offset="0" stop-color="#fcf177"/><stop offset="1" stop-color="#baa030"/></linearGradient><linearGradient id="linear-gradient-2" x1="124.32" y1="176.4" x2="726.74" y2="176.4" gradientTransform="translate(676.4 73.44) rotate(90)" xlink:href="#linear-gradient"/></defs><title>logosvg</title><path class="cls-1" d="M542.21,677.11c-39.39,37.4-84.11,76.1-140.06,97.46C336,799.83,329,800.36,186.8,800.15c-18.05,1.53-36,2.09-52.71,2.09-19.12,0-36.68-.73-51.11-1.64C66.55,798,46.4,794.84,27.52,782.83c-2.26-1.41-4.61-3.15-4.61-3.15-2.25-1.6-6.56-4.68-10.59-8.18-6-5.35-9.37-8.3-11-12.77A20.75,20.75,0,0,1,1,745.16c2.22-6.12,7.22-9.1,14.82-13.54a79.51,79.51,0,0,1,11.28-5.52,84.84,84.84,0,0,0,12.66-6.32c1.57-1,3.62-2.33,7.68-5,6.55-4.31,11.69-7.9,15-10.2,1.77-1.25,3-2.08,3.58-2.46A317.68,317.68,0,0,1,99.77,683.6c14.3-6,25.58-10.79,41.3-10.52,8.57.1,25.29,1.63,41.29,11.17,2.46,1.46,4.23,2.74,6,4a69,69,0,0,0,9.31,5.8A76.05,76.05,0,0,0,223,702.33c2.95.41,5.85.81,8.78,1.14,86.22-.24,92.71-2.74,135.85-19.22s79.6-49.87,117.42-86.24C505,628.14,523.89,654.31,542.21,677.11Z"/><path class="cls-2" d="M798.79,417.93h-.28c-68.81,0-132.21,34.32-215.21,95.18,20.47,31.79,39,57.54,55.76,78.81,78.15-57.5,120.86-78.43,159.45-78.43h.15c50.31,0,104.65,36.37,104.65,95.11,0,59.45-53.29,94.95-104.8,94.95-22.8,0-45.9,0-73.6-13.24-1.35-.6-2.63-1.3-4-2-1-.48-2-1.06-3-1.58s-2.14-1.17-3.22-1.81-2.46-1.42-3.71-2.22c-11.32-6.84-23.4-16-36.54-28.24-1-.93-2-1.85-3-2.82-13.85-13.18-28.88-29.77-45.32-50.59-16.95-21.51-35.48-47.5-55.78-79-2.53-3.89-5.13-7.92-7.74-12l-3.15-5c-.15-.24-.28-.52-.44-.76-2.09-3.62-4.18-7.16-6.23-10.67q-15.66-26.7-30.54-50.41-5-8-9.91-15.67c-1.66,1.6-3.27,3.11-4.8,4.58-20.24,19.37-31.28,29.92-69.29,59.32.75,1.16,1.49,2.31,2.22,3.49.17.24.28.52.45.76,2.08,3.62,4.19,7.18,6.24,10.69q15.63,26.7,30.54,50.39c3.41,5.51,6.8,10.9,10.23,16.18l0,0c1.38,2.16,2.76,4.29,4.14,6.41q2.34,3.69,4.75,7.25c19.88,30.3,38.76,56.6,57,79.36,1.64,2,3.27,4.07,4.91,6.08q4.89,6,9.75,11.65c1.62,1.85,3.22,3.75,4.84,5.56s3.17,3.61,4.83,5.39,3.13,3.5,4.76,5.23c4.75,5.17,9.47,10.09,14.22,14.79,1.57,1.58,3.13,3.15,4.7,4.64s3.15,3,4.71,4.47,3.12,2.89,4.68,4.31,3.1,2.85,4.68,4.19,3.1,2.71,4.63,4,3.09,2.61,4.64,3.9,3.09,2.55,4.62,3.74c1.94,1.53,3.88,3.08,5.8,4.52s3.75,2.77,5.61,4.12,4,2.85,6,4.23,3.75,2.53,5.63,3.74,3.43,2.2,5.13,3.27c.32.18.63.39,1,.59,1.73,1.05,3.47,2.09,5.2,3.06s3.51,2.07,5.24,3c2.5,1.38,5,2.67,7.42,3.92,1.16.6,2.33,1.17,3.5,1.73,2.26,1.08,4.52,2.13,6.77,3.13,1.57.69,3.1,1.38,4.66,2,5.45,2.31,10.8,4.32,16.13,6.09,3.82,1.29,7.6,2.45,11.39,3.45,1.9.54,3.78,1,5.65,1.49,25.69,6.45,50.14,7.91,73.6,7.91,50.46,0,100.7-18.66,137.8-51.12,41.09-36,63.68-85.29,63.68-139.91C1000,503.5,909.73,417.93,798.79,417.93ZM998.71,241.27c-1.64-4.47-5-7.42-11-12.77-4-3.5-8.33-6.56-10.59-8.18,0,0-2.33-1.74-4.58-3.13-18.91-12-39-15.2-55.48-17.77-14.43-.93-32-1.66-51.12-1.66-16.72,0-34.64.56-52.7,2.09-142.19-.19-149.2.33-215.36,25.6-55.94,21.34-100.67,60-140.06,97.44l-2,1.83c-2,1.84-4,3.69-6,5.57L446,333.87l0,0c-25.11,23.34-52.61,48.45-72.56,64.6-1.23,1-2.42,1.95-3.59,2.87l-1.42,1.12c-1.42,1.11-2.78,2.16-4.1,3.15s-2.31,1.71-3.4,2.49l-.54.41c-77.81,57.18-120.39,78-158.89,78h-.16c-50.32,0-104.66-36.39-104.66-95.11,0-59.47,53.3-95,104.82-95,22.8,0,45.88,0,73.59,13.24,1.34.6,2.62,1.3,4,2,1,.48,2,1.06,3,1.58s2.14,1.17,3.22,1.81,2.46,1.42,3.71,2.22c11.32,6.86,23.4,16,36.54,28.24,1,.93,2,1.86,3,2.82a440.18,440.18,0,0,1,34.35,37.09c20.94-16.94,50.77-44.38,72.47-64.55l-3.86-4.55c-1.61-1.87-3.23-3.75-4.83-5.58s-3.19-3.61-4.85-5.39-3.13-3.5-4.75-5.23c-4.76-5.17-9.45-10.07-14.21-14.79-1.58-1.56-3.15-3.15-4.71-4.64s-3.16-3-4.72-4.47-3.1-2.89-4.68-4.31-3.09-2.85-4.66-4.19-3.11-2.69-4.64-4-3.1-2.61-4.63-3.9-3.11-2.53-4.64-3.74c-1.94-1.53-3.86-3.06-5.8-4.52s-3.74-2.77-5.59-4.12c-2-1.43-4-2.85-6-4.21s-3.75-2.55-5.65-3.75c-1.73-1.13-3.43-2.21-5.11-3.26l-1-.61c-1.73-1.05-3.46-2.09-5.2-3.06s-3.5-2.05-5.24-3c-2.5-1.36-5-2.67-7.4-3.92-1.17-.6-2.35-1.15-3.5-1.73-2.26-1.08-4.51-2.13-6.77-3.13-1.58-.69-3.11-1.38-4.68-2-5.44-2.29-10.79-4.3-16.11-6.07-3.84-1.31-7.62-2.47-11.41-3.47-1.9-.52-3.78-1-5.64-1.49-25.69-6.45-50.15-7.91-73.59-7.91-50.48,0-100.72,18.66-137.82,51.12C22.59,287,0,336.22,0,390.84,0,496.5,90.27,582.07,201.21,582.07h.29c68.09,0,130.91-33.63,212.64-93.32.84-.58,1.7-1.21,2.55-1.86l3.17-2.43c3.3-2.53,6.4-4.92,9.34-7.19,40.49-31.38,49.31-40.64,73.83-64l3.31-3.16c.77-.72,1.53-1.47,2.33-2.21l.55-.51c1.8-1.73,3.72-3.52,5.72-5.4,37.82-36.39,74.25-69.78,117.43-86.26s49.62-19,135.84-19.2c2.95.31,5.84.71,8.78,1.12A76.41,76.41,0,0,1,802.37,306a71.53,71.53,0,0,1,9.3,5.8c1.73,1.21,3.5,2.49,6,3.95,16,9.54,32.72,11.07,41.3,11.17,15.71.27,27-4.55,41.29-10.52A312.67,312.67,0,0,0,934,297.91c.6-.36,1.81-1.21,3.58-2.46,3.26-2.3,8.43-5.88,15-10.2,4.07-2.68,6.12-4.06,7.7-5a83.87,83.87,0,0,1,12.64-6.32,79,79,0,0,0,11.28-5.52c7.6-4.44,12.6-7.42,14.82-13.54A20.64,20.64,0,0,0,998.71,241.27Z"/></svg>